<svg version="1.2" xmlns="http://www.w3.org/2000/svg" xmlns:xlink="http://www.w3.org/1999/xlink" overflow="visible" preserveAspectRatio="none" viewBox="0 0 24 24" width="19" height="19"><g><defs> </defs> <rect display="none" fill="#FFA400" width="24" height="24" style="fill: rgb(124, 146, 153);" vector-effect="non-scaling-stroke"/> <rect id="_x3C_Slice_x3E__81_" display="none" fill="none" width="24" height="24" style="fill: rgb(124, 146, 153);" vector-effect="non-scaling-stroke"/> <path fill-rule="evenodd" clip-rule="evenodd" d="M21,17l-5.5-1c-0.5-1-0.498-1.435-0.5-2c0.5-0.5,1.5-1,1.5-1.5C17,11,17,10,17,10 c0.259-0.374,1-1,1-2s-1-2-1-2.5c0-4-2.037-5.5-5-5.5C9.165,0,7,1.5,7,5.5C7,6,6,7,6,8s0.715,1.658,1,2c0,0,0,1,0.5,2.5 c0,0.5,1,1,1.5,1.5c0,0.5,0,1-0.5,2L3,17c-2,0.5-3,4-3,7h24C24,21,23,17.5,21,17z" style="fill: rgb(124, 146, 153);" vector-effect="non-scaling-stroke"/> </g></svg>