<svg id="Calendar" xmlns="http://www.w3.org/2000/svg" viewBox="0 0 35 35"><defs><style>.cls-1{fill:#c0c5c8;}.cls-2{fill:#5f6f77;}</style></defs><path class="cls-1" d="M20.94,19.25H31.26v7.9a2.68,2.68,0,0,1-2.58,2.63H6.32a2.68,2.68,0,0,1-2.58-2.63v-7.9H14.06v2.64a.87.87,0,0,0,.86.87h5.16a.87.87,0,0,0,.86-.87Z"/><path class="cls-2" d="M28.68,10.69h-4.3V8A2.73,2.73,0,0,0,21.8,5.22H13.2A2.73,2.73,0,0,0,10.62,8v2.74H6.32a2.74,2.74,0,0,0-2.58,2.74V18H31.26V13.43A2.74,2.74,0,0,0,28.68,10.69Zm-7.74,0H14.06V8.87h6.88Z"/></svg>