<svg id="Calendar" xmlns="http://www.w3.org/2000/svg" viewBox="0 0 35 35"><defs><style>.cls-1{fill:#FFFFFF;}.cls-2{fill:#FFFFFF;}</style></defs><path class="cls-1" d="M29.3,9.64V22.86a1.37,1.37,0,0,1-.86,1.26c-8.24,3.35-9.92-3-18.62,1v-15a2.56,2.56,0,0,0,.68-.71c9.1-3.56,8.66,2.78,16.49-1A1.52,1.52,0,0,1,29.3,9.64Z"/><path class="cls-2" d="M10.94,8a2.7,2.7,0,0,1-1.12,2.19V28.66a1,1,0,0,1-1,1.05H7.85a1,1,0,0,1-1-1.05V10.15a2.7,2.7,0,0,1-.91-3.24A2.62,2.62,0,0,1,8.85,5.34,2.66,2.66,0,0,1,10.94,8Z"/></svg>