<svg id="Calendar" xmlns="http://www.w3.org/2000/svg" viewBox="0 0 35 35"><defs><style>.cls-1{fill:#c0c5c8;}.cls-2{fill:#5f7078;}</style></defs><path class="cls-1" d="M32.14,17.79l-5.6-2.19a1.54,1.54,0,0,0-1.08,0l-5.6,2.19A1.31,1.31,0,0,0,19,19a11,11,0,0,0,6.46,10.4,1.54,1.54,0,0,0,1.08,0A11,11,0,0,0,33,19a1.31,1.31,0,0,0-.86-1.21ZM26,27.09V17.9l4.64,1.81A8.71,8.71,0,0,1,26,27.09Z"/><path class="cls-2" d="M12.69,17.5a6,6,0,1,0-6.11-6A6.05,6.05,0,0,0,12.69,17.5Zm4.58,1.88c0-.12,0-.23.05-.34s-.23,0-.36,0h-.79a8.45,8.45,0,0,1-7,0h-.8A6.36,6.36,0,0,0,2,25.3v1.95A2.27,2.27,0,0,0,4.29,29.5H21.08a2.4,2.4,0,0,0,.92-.19,12.49,12.49,0,0,1-4.73-9.93Z"/></svg>