<svg id="Calendar" xmlns="http://www.w3.org/2000/svg" viewBox="0 0 60 60"><defs><style>.cls-1{fill:#20a8c0;}.cls-2{fill:#e7eced;}</style></defs><path class="cls-1" d="M20.5,35.37h19V30h-19ZM49,19.25H37.92a1.48,1.48,0,0,1-1.59-1.34V8.5H13.38a2.59,2.59,0,0,0-1.68.59,1.83,1.83,0,0,0-.7,1.42v39a1.89,1.89,0,0,0,.69,1.43,2.56,2.56,0,0,0,1.67.59H46.62a2.59,2.59,0,0,0,1.68-.59,1.83,1.83,0,0,0,.7-1.42Zm-31.67-4.7a.74.74,0,0,1,.8-.67H26a.74.74,0,0,1,.79.67v1.34a.74.74,0,0,1-.79.67H18.13a.74.74,0,0,1-.8-.67Zm0,5.37a.74.74,0,0,1,.8-.67H26a.74.74,0,0,1,.79.67v1.35a.74.74,0,0,1-.79.67H18.13a.74.74,0,0,1-.8-.67ZM42.67,45.45a.74.74,0,0,1-.8.67H34a.74.74,0,0,1-.79-.67V44.11a.74.74,0,0,1,.79-.67h7.91a.74.74,0,0,1,.8.67Zm0-8.73a1.48,1.48,0,0,1-1.59,1.34H18.92a1.48,1.48,0,0,1-1.59-1.34V28.66a1.48,1.48,0,0,1,1.59-1.35H41.08a1.48,1.48,0,0,1,1.59,1.35Z"/><path class="cls-2" d="M48.3,17.41,38.51,9.09a2.64,2.64,0,0,0-1.7-.59H36.2V18a1.5,1.5,0,0,0,1.6,1.36H49v-.52A1.87,1.87,0,0,0,48.3,17.41ZM41,27.5H18.6A1.5,1.5,0,0,0,17,28.86V37a1.5,1.5,0,0,0,1.6,1.36H41A1.5,1.5,0,0,0,42.6,37V28.86A1.5,1.5,0,0,0,41,27.5Zm-1.6,8.14H20.2V30.21H39.4Zm2.4,8.15h-8a.74.74,0,0,0-.8.67v1.36a.75.75,0,0,0,.8.68h8a.75.75,0,0,0,.8-.68V44.46A.74.74,0,0,0,41.8,43.79Z"/></svg>