<svg id="Calendar" xmlns="http://www.w3.org/2000/svg" viewBox="0 0 35 35"><defs><style>.cls-1{fill:#c0c5c8;}.cls-2{fill:#5f6f77;}</style></defs><path class="cls-1" d="M13,20.55h9V17.5H13ZM26.54,11.4H21.27a.76.76,0,0,1-.76-.76V5.31H9.59A1.13,1.13,0,0,0,8.46,6.45v22.1a1.09,1.09,0,0,0,.32.8,1.1,1.1,0,0,0,.8.34H25.41a1.13,1.13,0,0,0,1.13-1.14ZM11.47,8.74a.38.38,0,0,1,.38-.38h3.77a.38.38,0,0,1,.37.38V9.5a.38.38,0,0,1-.37.38H11.85a.38.38,0,0,1-.38-.38Zm0,3a.39.39,0,0,1,.38-.39h3.77a.39.39,0,0,1,.37.39v.76a.38.38,0,0,1-.37.38H11.85a.38.38,0,0,1-.38-.38ZM23.53,26.26a.38.38,0,0,1-.38.38H19.38a.38.38,0,0,1-.37-.38V25.5a.38.38,0,0,1,.37-.38h3.77a.38.38,0,0,1,.38.38Zm0-5a.76.76,0,0,1-.75.76H12.22a.76.76,0,0,1-.75-.76V16.74a.76.76,0,0,1,.75-.76H22.78a.76.76,0,0,1,.75.76Z"/><path class="cls-2" d="M26.2,10.47,21.39,5.65a1.18,1.18,0,0,0-.84-.34h-.3v5.5a.79.79,0,0,0,.79.79h5.5v-.3A1.17,1.17,0,0,0,26.2,10.47Zm-3.59,5.85h-11a.79.79,0,0,0-.79.79v4.72a.79.79,0,0,0,.79.78h11a.78.78,0,0,0,.79-.78V17.11A.79.79,0,0,0,22.61,16.32ZM21.83,21H12.39V17.89h9.44ZM23,25.76H19.07a.39.39,0,0,0-.39.39v.79a.4.4,0,0,0,.39.39H23a.4.4,0,0,0,.39-.39v-.79A.39.39,0,0,0,23,25.76Z"/></svg>