<svg version="1.2" xmlns="http://www.w3.org/2000/svg" xmlns:xlink="http://www.w3.org/1999/xlink" overflow="visible" preserveAspectRatio="none" viewBox="0 0 40.00000000023828 50.999988239740226" width="40.00000000023828" height="50.999988239740226"><g transform="translate(0, 0)"><g transform="translate(0, -0.0000017602597811110312) rotate(0)"><path d="M39.125,11.95313l-12.2375,-11.15625c-0.56411,-0.51197 -1.3286,-0.79865 -2.125,-0.79687h-0.7625v12.75c0,1.00595 0.89543,1.82143 2,1.82143h14v-0.69442c0.00001,-0.72159 -0.31474,-1.41364 -0.875,-1.92388zM30,25.5h-28c-1.10457,0 -2,0.81548 -2,1.82143v10.92857c0,1.00595 0.89543,1.82143 2,1.82143h28c1.10457,0 2,-0.81548 2,-1.82143v-10.92857c0,-1.00595 -0.89543,-1.82143 -2,-1.82143zM28,36.42857h-24v-7.28571h24zM31,47.35714h-10c-0.55228,0 -1,0.40774 -1,0.91071v1.82143c0,0.50297 0.44772,0.91071 1,0.91071h10c0.55228,0 1,-0.40774 1,-0.91071v-1.82143c0,-0.50297 -0.44772,-0.91071 -1,-0.91071z" style="stroke-width: 0; stroke-linecap: butt; stroke-linejoin: miter; fill: rgb(231, 236, 238);" vector-effect="non-scaling-stroke"/></g><defs><path id="path-1611474288085129" d="M39.125,11.95313l-12.2375,-11.15625c-0.56411,-0.51197 -1.3286,-0.79865 -2.125,-0.79687h-0.7625v12.75c0,1.00595 0.89543,1.82143 2,1.82143h14v-0.69442c0.00001,-0.72159 -0.31474,-1.41364 -0.875,-1.92388zM30,25.5h-28c-1.10457,0 -2,0.81548 -2,1.82143v10.92857c0,1.00595 0.89543,1.82143 2,1.82143h28c1.10457,0 2,-0.81548 2,-1.82143v-10.92857c0,-1.00595 -0.89543,-1.82143 -2,-1.82143zM28,36.42857h-24v-7.28571h24zM31,47.35714h-10c-0.55228,0 -1,0.40774 -1,0.91071v1.82143c0,0.50297 0.44772,0.91071 1,0.91071h10c0.55228,0 1,-0.40774 1,-0.91071v-1.82143c0,-0.50297 -0.44772,-0.91071 -1,-0.91071z" vector-effect="non-scaling-stroke"/></defs></g></svg>