<?xml version="1.0" encoding="utf-8"?>
<!-- Generator: Adobe Illustrator 25.2.0, SVG Export Plug-In . SVG Version: 6.00 Build 0)  -->
<svg version="1.1" id="Layer_1" xmlns="http://www.w3.org/2000/svg" xmlns:xlink="http://www.w3.org/1999/xlink" x="0px" y="0px"
	 viewBox="0 0 89.8 87.6" style="enable-background:new 0 0 89.8 87.6;" xml:space="preserve">
<style type="text/css">
	.st0{fill:#19A6C3;}
	.st1{fill:#E8465E;}
	.st2{fill:#66C3D4;}
</style>
<g id="logo_symbol">
	<path class="st0" d="M43.9,83.9c-22.1,0-40.1-18-40.1-40.1c0-22.1,18-40.1,40.1-40.1c2.6,0,4.8,2.1,4.8,4.8c0,2.6-2.1,4.8-4.8,4.8
		C27,13.3,13.4,27,13.4,43.8S27.1,74.4,44,74.4c5.2,0,10.3-1.3,14.8-3.8c2.3-1.3,5.2-0.5,6.5,1.9c1.3,2.3,0.5,5.2-1.9,6.5
		C57.4,82.2,50.7,83.9,43.9,83.9z"/>
	<path class="st1" d="M42.4,54.1c-1.3,0-2.5-0.5-3.4-1.4l-7-7c-1.8-1.9-1.7-5,0.3-6.8c1.8-1.7,4.7-1.7,6.5,0l3.7,3.7l11-8.2
		c1.7-2,4.7-2.2,6.8-0.5c2,1.7,2.2,4.7,0.5,6.8c-0.2,0.2-0.3,0.4-0.5,0.5L45.8,52.7C44.9,53.6,43.7,54.1,42.4,54.1z"/>
	<path class="st2" d="M83.2,46.6h-8.4c-1.5,0-2.7-1.2-2.7-2.7s1.2-2.7,2.7-2.7h8.4c1.5,0,2.7,1.2,2.7,2.7S84.8,46.6,83.2,46.6z"/>
	<path class="st2" d="M70.8,30.9c-1.5,0-2.7-1.3-2.7-2.8c0-0.9,0.5-1.8,1.3-2.3l7.2-4.2c1.4-0.6,3-0.1,3.7,1.3
		c0.6,1.2,0.2,2.6-0.9,3.4l-7.2,4.2C71.8,30.8,71.3,30.9,70.8,30.9z"/>
	<path class="st2" d="M59.4,19.6c-0.5,0-0.9-0.1-1.4-0.4c-1.3-0.8-1.7-2.4-1-3.7l4.2-7.3c0.9-1.2,2.6-1.5,3.8-0.7
		c1.1,0.8,1.5,2.2,0.9,3.4l-4.2,7.3C61.3,19.1,60.4,19.7,59.4,19.6z"/>
	<path class="st2" d="M78.9,66.4c-0.5,0-0.9-0.1-1.4-0.4l-7.2-4.2c-1.2-0.9-1.5-2.6-0.7-3.8c0.8-1.1,2.2-1.5,3.4-0.9l7.2,4.2
		c1.3,0.8,1.7,2.5,0.9,3.8C80.8,65.9,79.9,66.4,78.9,66.4z"/>
</g>
</svg>
