<svg id="Calendar" xmlns="http://www.w3.org/2000/svg" viewBox="0 0 35 35"><defs><style>.cls-1{fill:#c0c5c8;}.cls-2{fill:#5f6f77;}</style></defs><path class="cls-1" d="M17.5,5.58A11.92,11.92,0,1,0,29.42,17.5,11.91,11.91,0,0,0,17.5,5.58ZM22,20.63h0l-1,1.2a.77.77,0,0,1-.52.28A.83.83,0,0,1,19.9,22h0l-3.22-2.39a2,2,0,0,1-.72-1.5V10.58a.77.77,0,0,1,.77-.77h1.54a.77.77,0,0,1,.77.77V17.5l2.79,2a.77.77,0,0,1,.28.52A.83.83,0,0,1,22,20.63Z"/><path class="cls-2" d="M22,20.63h0l-1,1.2a.77.77,0,0,1-.52.28A.83.83,0,0,1,19.9,22h0l-3.22-2.39a2,2,0,0,1-.72-1.5V10.58a.77.77,0,0,1,.77-.77h1.54a.77.77,0,0,1,.77.77V17.5l2.79,2a.77.77,0,0,1,.28.52A.83.83,0,0,1,22,20.63Z"/></svg>