<svg id="Calendar" xmlns="http://www.w3.org/2000/svg" viewBox="0 0 60 60"><defs><style>.cls-1{fill:#18a7c2;}.cls-2{fill:#e7eced;}</style></defs><path class="cls-1" d="M43.5,31.5A6.5,6.5,0,1,0,50,38,6.5,6.5,0,0,0,43.5,31.5Zm3.44,7.12a.28.28,0,0,1-.29.27h-2v1.9a.28.28,0,0,1-.29.27H42.64a.28.28,0,0,1-.29-.27v-1.9h-2a.28.28,0,0,1-.29-.27V37a.28.28,0,0,1,.29-.27h2v-1.9a.28.28,0,0,1,.29-.27h1.72a.28.28,0,0,1,.29.27v1.9h2a.28.28,0,0,1,.29.27Z"/><path class="cls-2" d="M35.27,36.64A10.69,10.69,0,0,1,36,32.89a11.42,11.42,0,0,1-3,.43,11.71,11.71,0,0,1-4.92-1.11h-.59a8.12,8.12,0,0,0-8.27,8v2a3.38,3.38,0,0,0,3.44,3.32h17.3A10.91,10.91,0,0,1,35.27,36.64ZM16.89,27.78a4.43,4.43,0,1,0-4.59-4.43A4.51,4.51,0,0,0,16.89,27.78Zm5.53,3.5A4.62,4.62,0,0,0,19.19,30h-4.6A4.51,4.51,0,0,0,10,34.43v2.21a2.27,2.27,0,0,0,2.3,2.22H17A10.18,10.18,0,0,1,22.42,31.28ZM33,30h0a7.9,7.9,0,0,0,8-7.75,8,8,0,0,0-16.07,0A7.9,7.9,0,0,0,33,30Z"/></svg>