<svg version="1.2" xmlns="http://www.w3.org/2000/svg" xmlns:xlink="http://www.w3.org/1999/xlink" overflow="visible" preserveAspectRatio="none" viewBox="0 0 18 21" width="18" height="21"><g transform="translate(0, 0)"><g transform="translate(0, 0) rotate(0)"><path style="stroke-width: 0; stroke-linecap: butt; stroke-linejoin: miter; fill: rgb(70, 85, 93);" d="M9,0c-4.97056,0 -9,4.70101 -9,10.5c0,5.79899 4.02944,10.5 9,10.5c4.97056,0 9,-4.70101 9,-10.5c0,-5.79899 -4.02944,-10.5 -9,-10.5zM13.5,11.8125c0,0.24147 -0.16779,0.43723 -0.37477,0.43723h-2.62547v3.06305c0,0.24147 -0.16779,0.43723 -0.37477,0.43723h-2.25c-0.20698,0 -0.37477,-0.19575 -0.37477,-0.43723v-3.06305h-2.62547c-0.20698,0 -0.37477,-0.19575 -0.37477,-0.43723v-2.625c0,-0.24147 0.16779,-0.43723 0.37477,-0.43723h2.62547v-3.06305c0,-0.24147 0.16779,-0.43723 0.37477,-0.43723h2.25c0.20698,0 0.37477,0.19575 0.37477,0.43723v3.06305h2.62547c0.20698,0 0.37477,0.19575 0.37477,0.43723z" vector-effect="non-scaling-stroke"/></g><defs><path id="path-1602315130265145" d="M9,0c-4.97056,0 -9,4.70101 -9,10.5c0,5.79899 4.02944,10.5 9,10.5c4.97056,0 9,-4.70101 9,-10.5c0,-5.79899 -4.02944,-10.5 -9,-10.5zM13.5,11.8125c0,0.24147 -0.16779,0.43723 -0.37477,0.43723h-2.62547v3.06305c0,0.24147 -0.16779,0.43723 -0.37477,0.43723h-2.25c-0.20698,0 -0.37477,-0.19575 -0.37477,-0.43723v-3.06305h-2.62547c-0.20698,0 -0.37477,-0.19575 -0.37477,-0.43723v-2.625c0,-0.24147 0.16779,-0.43723 0.37477,-0.43723h2.62547v-3.06305c0,-0.24147 0.16779,-0.43723 0.37477,-0.43723h2.25c0.20698,0 0.37477,0.19575 0.37477,0.43723v3.06305h2.62547c0.20698,0 0.37477,0.19575 0.37477,0.43723z" vector-effect="non-scaling-stroke"/></defs></g></svg>