<svg id="Calendar" xmlns="http://www.w3.org/2000/svg" viewBox="0 0 35 35"><defs><style>.cls-1{fill:#5f7078;}.cls-2{fill:#c0c5c8;}</style></defs><path class="cls-1" d="M13,10.58A2.3,2.3,0,1,1,17.5,10a2.43,2.43,0,0,1-.29,1.16l.29,0L23,10.44l1.27-3.72A.61.61,0,0,0,24,6h0l-2-.76a.56.56,0,0,0-.73.36h0L19.77,9.87a4.69,4.69,0,0,0-4.55-4.72A4.7,4.7,0,0,0,10.66,10c0,.1,0,.19,0,.28Zm15.82,4.84L27,11.53a.6.6,0,0,0-.6-.33L17.5,12.4l3.27,5.75a.57.57,0,0,0,.66.28l7.05-2.14a.63.63,0,0,0,.4-.77.3.3,0,0,0,0-.1ZM8,11.53,6.16,15.42a.64.64,0,0,0,.26.83l.1,0,7.05,2.13a.6.6,0,0,0,.67-.27L17.5,12.4,8.59,11.2A.57.57,0,0,0,8,11.53Z"/><path class="cls-2" d="M31.16,23.18l-7.49,6a3.15,3.15,0,0,1-2,.69H4a.8.8,0,0,1-.79-.79V24.31A.8.8,0,0,1,4,23.52H6.78l2.3-1.86a5.83,5.83,0,0,1,3.67-1.3h7.92a1.58,1.58,0,0,1,1.58,1.58,2.65,2.65,0,0,1,0,.27,1.65,1.65,0,0,1-1.65,1.31H16.71a.79.79,0,1,0,0,1.58h5.85a3.16,3.16,0,0,0,2-.69l4.57-3.65a1.63,1.63,0,0,1,2.11,0A1.58,1.58,0,0,1,31.35,23,1.7,1.7,0,0,1,31.16,23.18Z"/><path class="cls-2" d="M20.1,19a2.47,2.47,0,0,1-.22-.29L17.5,14.65l-2.38,4.08a1.67,1.67,0,0,1-.22.28h5.2Z"/><path class="cls-2" d="M23.29,21.8a3.89,3.89,0,0,1,0,.47,3,3,0,0,1-.34.93l1.32-.34L27,20.57V18.05l-4.9,1.44A2.87,2.87,0,0,1,23.29,21.8Z"/><path class="cls-2" d="M8.58,20.59a6.75,6.75,0,0,1,3.08-1.45L8,18.06v3Z"/></svg>