<?xml version="1.0" standalone="no"?>
<svg version="1.2" xmlns="http://www.w3.org/2000/svg" xmlns:xlink="http://www.w3.org/1999/xlink" overflow="visible" preserveAspectRatio="none" viewBox="0 0 34 34" width="34" height="34"><g transform="translate(0, 0)"><g transform="translate(0, 0) rotate(0)"><path d="M17,0c-9.39113,0 -17,7.60887 -17,17c0,9.39113 7.60887,17 17,17c9.39113,0 17,-7.60887 17,-17c0,-9.39113 -7.60887,-17 -17,-17zM17,6.58065c3.33145,0 6.03226,2.70081 6.03226,6.03226c0,3.33145 -2.70081,6.03226 -6.03226,6.03226c-3.33145,0 -6.03226,-2.70081 -6.03226,-6.03226c0,-3.33145 2.70081,-6.03226 6.03226,-6.03226zM17,30.16129c-4.02379,0 -7.62944,-1.82339 -10.04234,-4.675c1.28871,-2.42661 3.81129,-4.09919 6.75202,-4.09919c0.16452,0 0.32903,0.02742 0.48669,0.0754c0.89113,0.2879 1.82339,0.47298 2.80363,0.47298c0.98024,0 1.91935,-0.18508 2.80363,-0.47298c0.15766,-0.04798 0.32218,-0.0754 0.48669,-0.0754c2.94073,0 5.46331,1.67258 6.75202,4.09919c-2.4129,2.85161 -6.01855,4.675 -10.04234,4.675z" style="stroke-width: 0; stroke-linecap: butt; stroke-linejoin: miter; fill: rgb(70, 85, 93);"/></g><defs><path id="path-1601813112739260" d="M17,0c-9.39113,0 -17,7.60887 -17,17c0,9.39113 7.60887,17 17,17c9.39113,0 17,-7.60887 17,-17c0,-9.39113 -7.60887,-17 -17,-17zM17,6.58065c3.33145,0 6.03226,2.70081 6.03226,6.03226c0,3.33145 -2.70081,6.03226 -6.03226,6.03226c-3.33145,0 -6.03226,-2.70081 -6.03226,-6.03226c0,-3.33145 2.70081,-6.03226 6.03226,-6.03226zM17,30.16129c-4.02379,0 -7.62944,-1.82339 -10.04234,-4.675c1.28871,-2.42661 3.81129,-4.09919 6.75202,-4.09919c0.16452,0 0.32903,0.02742 0.48669,0.0754c0.89113,0.2879 1.82339,0.47298 2.80363,0.47298c0.98024,0 1.91935,-0.18508 2.80363,-0.47298c0.15766,-0.04798 0.32218,-0.0754 0.48669,-0.0754c2.94073,0 5.46331,1.67258 6.75202,4.09919c-2.4129,2.85161 -6.01855,4.675 -10.04234,4.675z"/></defs></g></svg>