<?xml version="1.0" encoding="utf-8"?>
<!-- Generator: Adobe Illustrator 25.1.0, SVG Export Plug-In . SVG Version: 6.00 Build 0)  -->
<svg version="1.1" xmlns="http://www.w3.org/2000/svg" xmlns:xlink="http://www.w3.org/1999/xlink" x="0px" y="0px"
	 viewBox="0 0 60 60" style="enable-background:new 0 0 60 60;" xml:space="preserve">
<style type="text/css">
	.st0{fill:#11A7C5;}
	.st1{fill:#E9465E;}
</style>
<g id="Layer_2">
</g>
<g id="Layer_1">
	<g>
		<g transform="translate(0, 0)">
			<g transform="translate(-0.000009999999999621423, 0) rotate(0)">
				<path vector-effect="non-scaling-stroke" class="st0" d="M35.8,38.6c0-1.7,0.3-3.3,0.9-4.8c-1.2,0.4-2.4,0.5-3.7,0.6
					c-2.2,0-4.2-0.5-6-1.4h-0.7c-5.6,0-10.1,4.6-10.1,10.3v2.6c0,2.4,1.9,4.3,4.2,4.3h21.2C38,47.4,35.8,43.3,35.8,38.6L35.8,38.6z
					 M13.3,27.1c3.1,0,5.6-2.6,5.6-5.7s-2.5-5.7-5.6-5.7s-5.6,2.6-5.6,5.7S10.1,27.1,13.3,27.1z M20,31.7c-1.1-1.1-2.5-1.7-4-1.7
					h-5.6c-3.1,0-5.6,2.6-5.6,5.7v2.9c0,1.6,1.3,2.9,2.8,2.9h5.8C14,37.3,16.4,33.7,20,31.7L20,31.7z M33,30L33,30
					c5.4,0,9.9-4.5,9.9-10S38.4,10,33,10s-9.8,4.5-9.8,10C23.1,25.5,27.5,30,33,30z"/>
			</g>
		</g>
		<g transform="translate(0, 0)">
			<g transform="translate(0, 0) rotate(0)">
				<path vector-effect="non-scaling-stroke" class="st1" d="M46.7,30c-4.7,0-8.5,3.8-8.5,8.5S42,47,46.7,47s8.5-3.8,8.5-8.5
					S51.4,30,46.7,30z M51.2,39.3c0,0.2-0.2,0.4-0.4,0.4h-2.6v2.5c0,0.2-0.2,0.4-0.4,0.4h-2.3c-0.2,0-0.4-0.2-0.4-0.4v-2.5h-2.6
					c-0.2,0-0.4-0.2-0.4-0.4v-2.1c0-0.2,0.2-0.4,0.4-0.4h2.6v-2.5c0-0.2,0.2-0.4,0.4-0.4h2.3c0.2,0,0.4,0.2,0.4,0.4v2.5h2.6
					c0.2,0,0.4,0.2,0.4,0.4V39.3z"/>
			</g>
		</g>
	</g>
</g>
</svg>
