<svg id="Calendar" xmlns="http://www.w3.org/2000/svg" viewBox="0 0 60 60"><defs><style>.cls-1{fill:#20a8c0;}.cls-2{fill:#e7eced;}</style></defs><path class="cls-1" d="M49.4,24.63V47.47a4.09,4.09,0,0,1-4.16,4H14.76a4.09,4.09,0,0,1-4.16-4V24.63ZM21.68,41.76a1,1,0,0,0-1-1H17.18a1,1,0,0,0-1,1v3.36a1,1,0,0,0,1,1h3.47a1,1,0,0,0,1-1Zm0-10.75a1,1,0,0,0-1-1H17.18a1,1,0,0,0-1,1v3.36a1,1,0,0,0,1,1h3.47a1,1,0,0,0,1-1ZM32.77,41.76a1,1,0,0,0-1-1H28.27a1,1,0,0,0-1,1v3.36a1,1,0,0,0,1,1h3.46a1,1,0,0,0,1-1Zm0-10.75a1,1,0,0,0-1-1H28.27a1,1,0,0,0-1,1v3.36a1,1,0,0,0,1,1h3.46a1,1,0,0,0,1-1ZM43.86,41.76a1,1,0,0,0-1-1H39.35a1,1,0,0,0-1,1v3.36a1,1,0,0,0,1,1h3.47a1,1,0,0,0,1-1Zm0-10.75a1,1,0,0,0-1-1H39.35a1,1,0,0,0-1,1v3.36a1,1,0,0,0,1,1h3.47a1,1,0,0,0,1-1Zm-8.32-13.1V9.84A1.36,1.36,0,0,1,36.93,8.5H39.7a1.36,1.36,0,0,1,1.39,1.34v8.07a1.36,1.36,0,0,1-1.39,1.34H36.93A1.36,1.36,0,0,1,35.54,17.91Zm-16.63,0V9.84A1.36,1.36,0,0,1,20.3,8.5h2.77a1.36,1.36,0,0,1,1.39,1.34v8.07a1.36,1.36,0,0,1-1.39,1.34H20.3A1.36,1.36,0,0,1,18.91,17.91Z"/><path class="cls-2" d="M49.4,17.91v6.72H10.6V17.91a4.09,4.09,0,0,1,4.16-4h4.15v4a1.36,1.36,0,0,0,1.39,1.34h2.77a1.36,1.36,0,0,0,1.39-1.34v-4H35.54v4a1.36,1.36,0,0,0,1.39,1.34H39.7a1.36,1.36,0,0,0,1.39-1.34v-4h4.15A4.09,4.09,0,0,1,49.4,17.91Z"/></svg>