<svg id="Calendar" xmlns="http://www.w3.org/2000/svg" viewBox="0 0 35 35"><defs><style>.cls-1{fill:#c0c5c8;}.cls-2{fill:#5f7078;}</style></defs><path class="cls-1" d="M5.84,9.5a6.14,6.14,0,0,1-2.84,3V22.54a6.14,6.14,0,0,1,2.84,3H29.16a6.14,6.14,0,0,1,2.84-3V12.46a6.14,6.14,0,0,1-2.84-3ZM17.5,23.72c-2.83,0-5.12-2.78-5.12-6.22s2.29-6.22,5.12-6.22,5.12,2.78,5.12,6.22S20.33,23.72,17.5,23.72Z"/><path class="cls-2" d="M32.76,7.5H2.24A1.24,1.24,0,0,0,1,8.75v17.5A1.24,1.24,0,0,0,2.24,27.5H32.76A1.24,1.24,0,0,0,34,26.25V8.75A1.24,1.24,0,0,0,32.76,7.5ZM31.52,22.23A5.85,5.85,0,0,0,28.78,25H6.22a5.82,5.82,0,0,0-2.75-2.77V12.77A5.82,5.82,0,0,0,6.22,10H28.78a5.85,5.85,0,0,0,2.74,2.77ZM19.15,19.17h-.83V14.58a.41.41,0,0,0-.41-.41h-.7a1.19,1.19,0,0,0-.68.21l-.79.53a.42.42,0,0,0-.12.57l.46.7a.41.41,0,0,0,.57.11h0v2.89h-.82a.41.41,0,0,0-.41.41v.84a.41.41,0,0,0,.41.41h3.3a.41.41,0,0,0,.41-.41v-.84a.41.41,0,0,0-.41-.41Z"/></svg>