<svg version="1.2" xmlns="http://www.w3.org/2000/svg" xmlns:xlink="http://www.w3.org/1999/xlink" overflow="visible" preserveAspectRatio="none" viewBox="0 0 47.99999942021216 57.99999700939757" width="47.99999942021216" height="57.99999700939757"><g transform="translate(0, 0)"><g transform="translate(-5.797878374400733e-7, 0.00000850469878310646) rotate(0)"><path d="M12.00001,36.25h24v-7.25h-24zM48,14.5h-14c-1.10457,0 -2,-0.81148 -2,-1.8125v-12.6875h-28.99999c-0.79366,-0.0018 -1.55561,0.28219 -2.11822,0.7895c-0.56261,0.50732 -0.8798,1.1964 -0.88178,1.91565v52.57608c-0.00199,0.71926 0.31138,1.40977 0.87118,1.91963c0.5598,0.50986 1.32016,0.79732 2.11382,0.79912h42.01499c0.79366,0.0018 1.55561,-0.28219 2.11822,-0.7895c0.56261,-0.50732 0.8798,-1.1964 0.88178,-1.91565zM8.00001,8.15626c0,-0.50051 0.44772,-0.90625 1,-0.90625h10c0.55228,0 1,0.40574 1,0.90625v1.8125c0,0.50051 -0.44772,0.90625 -1,0.90625h-10c-0.55228,0 -1,-0.40574 -1,-0.90625zM8.00001,15.40625c0,-0.50051 0.44772,-0.90625 1,-0.90625h10c0.55228,0 1,0.40574 1,0.90625v1.8125c0,0.50051 -0.44772,0.90625 -1,0.90625h-10c-0.55228,0 -1,-0.40574 -1,-0.90625zM40,49.84374c0,0.50051 -0.44772,0.90625 -1,0.90625h-10c-0.55228,0 -1,-0.40574 -1,-0.90625v-1.8125c0,-0.50051 0.44772,-0.90625 1,-0.90625h10c0.55228,0 1,0.40574 1,0.90625zM40,38.0625c0,1.00102 -0.89543,1.8125 -2,1.8125h-27.99999c-1.10457,0 -2,-0.81148 -2,-1.8125v-10.875c0,-1.00102 0.89543,-1.8125 2,-1.8125h27.99999c1.10457,0 2,0.81148 2,1.8125z" style="stroke-width: 0; stroke-linecap: butt; stroke-linejoin: miter; fill: rgb(25, 150, 184);" vector-effect="non-scaling-stroke"/></g><defs><path id="path-1611474288086131" d="M12.00001,36.25h24v-7.25h-24zM48,14.5h-14c-1.10457,0 -2,-0.81148 -2,-1.8125v-12.6875h-28.99999c-0.79366,-0.0018 -1.55561,0.28219 -2.11822,0.7895c-0.56261,0.50732 -0.8798,1.1964 -0.88178,1.91565v52.57608c-0.00199,0.71926 0.31138,1.40977 0.87118,1.91963c0.5598,0.50986 1.32016,0.79732 2.11382,0.79912h42.01499c0.79366,0.0018 1.55561,-0.28219 2.11822,-0.7895c0.56261,-0.50732 0.8798,-1.1964 0.88178,-1.91565zM8.00001,8.15626c0,-0.50051 0.44772,-0.90625 1,-0.90625h10c0.55228,0 1,0.40574 1,0.90625v1.8125c0,0.50051 -0.44772,0.90625 -1,0.90625h-10c-0.55228,0 -1,-0.40574 -1,-0.90625zM8.00001,15.40625c0,-0.50051 0.44772,-0.90625 1,-0.90625h10c0.55228,0 1,0.40574 1,0.90625v1.8125c0,0.50051 -0.44772,0.90625 -1,0.90625h-10c-0.55228,0 -1,-0.40574 -1,-0.90625zM40,49.84374c0,0.50051 -0.44772,0.90625 -1,0.90625h-10c-0.55228,0 -1,-0.40574 -1,-0.90625v-1.8125c0,-0.50051 0.44772,-0.90625 1,-0.90625h10c0.55228,0 1,0.40574 1,0.90625zM40,38.0625c0,1.00102 -0.89543,1.8125 -2,1.8125h-27.99999c-1.10457,0 -2,-0.81148 -2,-1.8125v-10.875c0,-1.00102 0.89543,-1.8125 2,-1.8125h27.99999c1.10457,0 2,0.81148 2,1.8125z" vector-effect="non-scaling-stroke"/></defs></g></svg>