<svg version="1.2" xmlns="http://www.w3.org/2000/svg" xmlns:xlink="http://www.w3.org/1999/xlink" overflow="visible" preserveAspectRatio="none" viewBox="0 0 29.250657117997562 30.938637148735722" width="29.250657117997562" height="30.938637148735722"><g transform="translate(0, 0)"><defs><path id="path-1611474288087133" d="M47.70206098376904 26.446848234570798 C43.63963163813519 30.743655421341032 37.80192066845935 31.925277397702846 32.699509410343246 30.128137791836192 C32.699509410343246 30.128137791836192 32.673103619596624 30.156067038550198 32.673103619596624 30.156067038550198 C28.3403458845642 28.591193390433546 24.945161965989325 24.97907620970802 23.490997691127724 20.38727589942807 C23.490997691127724 20.38727589942807 23.50420058650103 20.373311276071068 23.50420058650103 20.373311276071068 C21.824386052081437 14.984040862064496 22.935460478112294 8.803083723895517 26.970468425663114 4.539576792822749 C30.607847648181384 0.6939594164346825 35.88417381344051 -0.8550002367936937 40.87514846843136 0.457609965391026 C41.30536406849161 0.5661073501993573 41.64624162351742 0.9126098782476888 41.76582095037351 1.362979832388212 C41.88540027722961 1.8133497865287354 41.76491139008377 2.296894030408116 41.45099782817496 2.6264233929133023 C41.45099782817496 2.6264233929133023 33.88167634992269 10.62707837467948 33.88167634992269 10.62707837467948 C33.88167634992269 10.62707837467948 35.03235946207348 17.931650592188877 35.03235946207348 17.931650592188877 C35.03235946207348 17.931650592188877 41.94458299366947 19.150869631434936 41.94458299366947 19.150869631434936 C41.94458299366947 19.150869631434936 49.51390447192173 11.14591784248199 49.51390447192173 11.14591784248199 C49.823408067142324 10.815031606132134 50.27752467019501 10.686325190509718 50.701984059914636 10.80919052571621 C51.12644344963425 10.932055860922699 51.455312083684994 11.287407618710807 51.5623844694576 11.738877234256282 C52.81145777374262 17.018437200369817 51.34548619692571 22.60384151144466 47.70206098376904 26.446848234570798 Z" vector-effect="non-scaling-stroke"/></defs><g transform="translate(-22.7494878598651, 0.0010213515579656999)"><path d="M47.70206098376904 26.446848234570798 C43.63963163813519 30.743655421341032 37.80192066845935 31.925277397702846 32.699509410343246 30.128137791836192 C32.699509410343246 30.128137791836192 32.673103619596624 30.156067038550198 32.673103619596624 30.156067038550198 C28.3403458845642 28.591193390433546 24.945161965989325 24.97907620970802 23.490997691127724 20.38727589942807 C23.490997691127724 20.38727589942807 23.50420058650103 20.373311276071068 23.50420058650103 20.373311276071068 C21.824386052081437 14.984040862064496 22.935460478112294 8.803083723895517 26.970468425663114 4.539576792822749 C30.607847648181384 0.6939594164346825 35.88417381344051 -0.8550002367936937 40.87514846843136 0.457609965391026 C41.30536406849161 0.5661073501993573 41.64624162351742 0.9126098782476888 41.76582095037351 1.362979832388212 C41.88540027722961 1.8133497865287354 41.76491139008377 2.296894030408116 41.45099782817496 2.6264233929133023 C41.45099782817496 2.6264233929133023 33.88167634992269 10.62707837467948 33.88167634992269 10.62707837467948 C33.88167634992269 10.62707837467948 35.03235946207348 17.931650592188877 35.03235946207348 17.931650592188877 C35.03235946207348 17.931650592188877 41.94458299366947 19.150869631434936 41.94458299366947 19.150869631434936 C41.94458299366947 19.150869631434936 49.51390447192173 11.14591784248199 49.51390447192173 11.14591784248199 C49.823408067142324 10.815031606132134 50.27752467019501 10.686325190509718 50.701984059914636 10.80919052571621 C51.12644344963425 10.932055860922699 51.455312083684994 11.287407618710807 51.5623844694576 11.738877234256282 C52.81145777374262 17.018437200369817 51.34548619692571 22.60384151144466 47.70206098376904 26.446848234570798 Z" style="stroke-width: 0; stroke-linecap: butt; stroke-linejoin: miter; fill: rgb(231, 236, 238);" vector-effect="non-scaling-stroke"/></g></g></svg>