<svg version="1.2" xmlns="http://www.w3.org/2000/svg" xmlns:xlink="http://www.w3.org/1999/xlink" overflow="visible" preserveAspectRatio="none" viewBox="0 0 33.0000087093809 34.999996928963725" width="33.0000087093809" height="34.999996928963725"><g transform="translate(0, 0)"><g transform="translate(0.000008709380900667751, 0) rotate(0)"><path d="M33,9.8267l-0.02665,0.02827c-4.36121,-1.57997 -7.78152,-5.22225 -9.25439,-9.85497l-21.86516,23.19354c-2.49771,2.72844 -2.46774,7.07894 0.06729,9.76836c2.53503,2.68942 6.63578,2.72121 9.20759,0.07139l21.87131,-23.20441zM6.49227,30.72177c-1.35842,0 -2.45964,-1.16828 -2.45964,-2.60944c0,-1.44115 1.10122,-2.60944 2.45964,-2.60944c1.35842,0 2.45964,1.16828 2.45964,2.60944c0,1.44115 -1.10122,2.60944 -2.45964,2.60944z" style="stroke-width: 0; stroke-linecap: butt; stroke-linejoin: miter; fill: rgb(25, 150, 184);" vector-effect="non-scaling-stroke"/></g><defs><path id="path-1611474288088135" d="M33,9.8267l-0.02665,0.02827c-4.36121,-1.57997 -7.78152,-5.22225 -9.25439,-9.85497l-21.86516,23.19354c-2.49771,2.72844 -2.46774,7.07894 0.06729,9.76836c2.53503,2.68942 6.63578,2.72121 9.20759,0.07139l21.87131,-23.20441zM6.49227,30.72177c-1.35842,0 -2.45964,-1.16828 -2.45964,-2.60944c0,-1.44115 1.10122,-2.60944 2.45964,-2.60944c1.35842,0 2.45964,1.16828 2.45964,2.60944c0,1.44115 -1.10122,2.60944 -2.45964,2.60944z" vector-effect="non-scaling-stroke"/></defs></g></svg>