<svg id="Calendar" xmlns="http://www.w3.org/2000/svg" viewBox="0 0 35 35"><defs><style>.cls-1{fill:#c0c5c8;}.cls-2{fill:#5f6f77;}</style></defs><path class="cls-1" d="M30.42,5.5H4.58A2.58,2.58,0,0,0,2,8.07V26.93A2.58,2.58,0,0,0,4.58,29.5H30.42A2.58,2.58,0,0,0,33,26.93V8.07A2.58,2.58,0,0,0,30.42,5.5Zm-19,5.14A3.43,3.43,0,1,1,8,14.07,3.45,3.45,0,0,1,11.47,10.64Zm6,12.69a1.13,1.13,0,0,1-1.21,1H6.65a1.13,1.13,0,0,1-1.21-1v-1a3.39,3.39,0,0,1,3.62-3.09h.27a5.48,5.48,0,0,0,4.28,0h.27A3.39,3.39,0,0,1,17.5,22.3ZM29.56,20.5a.44.44,0,0,1-.44.43H21.37a.43.43,0,0,1-.43-.43v-.86a.44.44,0,0,1,.43-.43h7.75a.44.44,0,0,1,.44.43Zm0-3.43a.44.44,0,0,1-.44.43H21.37a.43.43,0,0,1-.43-.43v-.86a.43.43,0,0,1,.43-.42h7.75a.43.43,0,0,1,.44.42Zm0-3.43a.44.44,0,0,1-.44.43H21.37a.43.43,0,0,1-.43-.43v-.85a.43.43,0,0,1,.43-.43h7.75a.44.44,0,0,1,.44.43Z"/><path class="cls-2" d="M11.5,17a3.75,3.75,0,1,0-3.71-3.75A3.73,3.73,0,0,0,11.5,17Zm2.6,1.87h-.29a5.88,5.88,0,0,1-4.62,0H8.9A3.68,3.68,0,0,0,5,22.25v1.12A1.22,1.22,0,0,0,6.3,24.5H16.7A1.22,1.22,0,0,0,18,23.37V22.25A3.68,3.68,0,0,0,14.1,18.87Z"/></svg>