<?xml version="1.0" standalone="no"?>
<svg version="1.2" xmlns="http://www.w3.org/2000/svg" xmlns:xlink="http://www.w3.org/1999/xlink" overflow="visible" preserveAspectRatio="none" viewBox="0 0 17 23" width="17" height="23"><g transform="translate(0, 0)"><g transform="translate(0, 0) rotate(0)"><path d="M8.5,0c-4.69442,0 -8.5,5.14873 -8.5,11.5c0,6.35127 3.80558,11.5 8.5,11.5c4.69442,0 8.5,-5.14873 8.5,-11.5c0,-6.35127 -3.80558,-11.5 -8.5,-11.5zM12.75,12.9375c0,0.26447 -0.15847,0.47887 -0.35395,0.47887h-2.47961v3.35477c0,0.26447 -0.15847,0.47887 -0.35395,0.47887h-2.125c-0.19548,0 -0.35395,-0.2144 -0.35395,-0.47887v-3.35477h-2.47961c-0.19548,0 -0.35395,-0.2144 -0.35395,-0.47887v-2.875c0,-0.26447 0.15847,-0.47887 0.35395,-0.47887h2.47961v-3.35477c0,-0.26447 0.15847,-0.47887 0.35395,-0.47887h2.125c0.19548,0 0.35395,0.2144 0.35395,0.47887v3.35477h2.47961c0.19548,0 0.35395,0.2144 0.35395,0.47887z" style="stroke-width: 0; stroke-linecap: butt; stroke-linejoin: miter; fill: rgb(25, 150, 184);"/></g><defs><path id="path-1601813112735255" d="M8.5,0c-4.69442,0 -8.5,5.14873 -8.5,11.5c0,6.35127 3.80558,11.5 8.5,11.5c4.69442,0 8.5,-5.14873 8.5,-11.5c0,-6.35127 -3.80558,-11.5 -8.5,-11.5zM12.75,12.9375c0,0.26447 -0.15847,0.47887 -0.35395,0.47887h-2.47961v3.35477c0,0.26447 -0.15847,0.47887 -0.35395,0.47887h-2.125c-0.19548,0 -0.35395,-0.2144 -0.35395,-0.47887v-3.35477h-2.47961c-0.19548,0 -0.35395,-0.2144 -0.35395,-0.47887v-2.875c0,-0.26447 0.15847,-0.47887 0.35395,-0.47887h2.47961v-3.35477c0,-0.26447 0.15847,-0.47887 0.35395,-0.47887h2.125c0.19548,0 0.35395,0.2144 0.35395,0.47887v3.35477h2.47961c0.19548,0 0.35395,0.2144 0.35395,0.47887z"/></defs></g></svg>