<svg version="1.2" xmlns="http://www.w3.org/2000/svg" xmlns:xlink="http://www.w3.org/1999/xlink" overflow="visible" preserveAspectRatio="none" viewBox="0 0 24 24" width="24" height="24"><g><defs> </defs> <rect display="none" fill="#FFA400" width="24" height="24" style="fill: rgb(44, 62, 79);" vector-effect="non-scaling-stroke"/> <rect id="_x3C_Slice_x3E__81_" display="none" fill="none" width="24" height="24" style="fill: rgb(44, 62, 79);" vector-effect="non-scaling-stroke"/> <path fill-rule="evenodd" clip-rule="evenodd" d="M18,17H6v1h12V17z M5,1h9v5h5v2h1V5l-5-5H4v8h1V1z M21,9H3c-2,0-3,1-3,3v6h4v6h16 v-6h4v-6C24,10,23,9,21,9z M4,13H2v-2h2V13z M19,23H5v-7h14V23z M18,19H6v1h12V19z M18,21H6v1h12V21z" style="fill: rgb(44, 62, 79);" vector-effect="non-scaling-stroke"/> </g></svg>