<svg id="Calendar" xmlns="http://www.w3.org/2000/svg" viewBox="0 0 60 60"><defs><style>.cls-1{fill:#20a8c0;}.cls-2{fill:#e7eced;}</style></defs><path class="cls-1" d="M39.05,31.15l0,0a13.59,13.59,0,0,1-8.89-8L9.15,42a5.2,5.2,0,0,0,.06,7.89,6.84,6.84,0,0,0,8.84.06l21-18.76ZM13.6,48a2.12,2.12,0,1,1,0-4.22,2.12,2.12,0,1,1,0,4.22Z"/><path class="cls-2" d="M48.89,29.18a13.22,13.22,0,0,1-13.06,2.88l0,0a12.48,12.48,0,0,1-8-7.64h0a11.68,11.68,0,0,1,3-12.38A13.21,13.21,0,0,1,43,8.86a1,1,0,0,1,.77.71,1,1,0,0,1-.27,1l-6.59,6.26,1,5.71,6,.95,6.59-6.26a1.13,1.13,0,0,1,1-.26,1,1,0,0,1,.75.73A11.69,11.69,0,0,1,48.89,29.18Z"/></svg>