<svg id="Calendar" xmlns="http://www.w3.org/2000/svg" viewBox="0 0 35 35"><defs><style>.cls-1{fill:#c0c5c8;}.cls-2{fill:#5f7078;}</style></defs><path class="cls-1" d="M4.92,29.6H8.51V5.4H4.92ZM26.49,5.4V29.6h3.59V5.4Z"/><path class="cls-2" d="M8.9,29.6H26.1V5.4H8.9Zm3.44-13.4a.43.43,0,0,1,.43-.43h3v-3a.43.43,0,0,1,.43-.43h2.58a.43.43,0,0,1,.43.43v3h3a.43.43,0,0,1,.43.43v2.6a.43.43,0,0,1-.43.43h-3v3a.43.43,0,0,1-.43.43H16.21a.43.43,0,0,1-.43-.43v-3h-3a.43.43,0,0,1-.43-.43ZM2,8V27A2.58,2.58,0,0,0,4.6,29.6h.86V5.4H4.6A2.58,2.58,0,0,0,2,8ZM30.4,5.4h-.86V29.6h.86A2.58,2.58,0,0,0,33,27V8A2.58,2.58,0,0,0,30.4,5.4Z"/></svg>