<?xml version="1.0" standalone="no"?>
<svg version="1.2" xmlns="http://www.w3.org/2000/svg" xmlns:xlink="http://www.w3.org/1999/xlink" overflow="visible" preserveAspectRatio="none" viewBox="0 0 36.000000342013266 43" width="36.000000342013266" height="43"><g transform="translate(0, 0)"><g transform="translate(0.000009999999999621423, -1.7763568394002505e-15) rotate(0)"><path d="M29.34148,30.71099c0,-1.83375 0.32676,-3.56861 0.84107,-5.20075c-1.13974,0.38517 -2.32071,0.58456 -3.50847,0.59237c-2.05057,0 -3.96777,-0.57605 -5.70992,-1.53613h-0.69186c-5.30283,0.00159 -9.60129,4.95244 -9.60267,11.06011v2.76503c0,2.54514 1.79136,4.60838 4.00111,4.60838h20.08891c-3.26924,-2.80247 -5.41817,-7.24571 -5.41817,-12.28901zM8.00222,18.42199c2.94634,0 5.33482,-2.75099 5.33482,-6.1445c0,-3.39352 -2.38848,-6.1445 -5.33482,-6.1445c-2.94634,0 -5.33482,2.75099 -5.33482,6.1445c0,3.39352 2.38848,6.1445 5.33482,6.1445zM14.42901,23.27999c-0.9983,-1.14526 -2.35036,-1.78751 -3.75938,-1.78575h-5.33482c-2.94519,0.00318 -5.33206,2.7523 -5.33482,6.1445v3.07225c0,1.69676 1.19424,3.07225 2.66741,3.07225h5.49319c0.51512,-4.45234 2.84386,-8.35435 6.26841,-10.50326zM26.66407,21.49424h0.01c5.15235,-0.00318 9.3273,-4.81565 9.32592,-10.75c-0.00138,-5.93435 -4.17857,-10.74424 -9.33092,-10.74424c-5.15235,0 -9.32954,4.80989 -9.33092,10.74424c-0.00138,5.93435 4.17357,10.74682 9.32592,10.75z" style="stroke-width: 0; stroke-linecap: butt; stroke-linejoin: miter; fill: rgb(231, 236, 238);"/></g><defs><path id="path-1601813062392101" d="M29.34148,30.71099c0,-1.83375 0.32676,-3.56861 0.84107,-5.20075c-1.13974,0.38517 -2.32071,0.58456 -3.50847,0.59237c-2.05057,0 -3.96777,-0.57605 -5.70992,-1.53613h-0.69186c-5.30283,0.00159 -9.60129,4.95244 -9.60267,11.06011v2.76503c0,2.54514 1.79136,4.60838 4.00111,4.60838h20.08891c-3.26924,-2.80247 -5.41817,-7.24571 -5.41817,-12.28901zM8.00222,18.42199c2.94634,0 5.33482,-2.75099 5.33482,-6.1445c0,-3.39352 -2.38848,-6.1445 -5.33482,-6.1445c-2.94634,0 -5.33482,2.75099 -5.33482,6.1445c0,3.39352 2.38848,6.1445 5.33482,6.1445zM14.42901,23.27999c-0.9983,-1.14526 -2.35036,-1.78751 -3.75938,-1.78575h-5.33482c-2.94519,0.00318 -5.33206,2.7523 -5.33482,6.1445v3.07225c0,1.69676 1.19424,3.07225 2.66741,3.07225h5.49319c0.51512,-4.45234 2.84386,-8.35435 6.26841,-10.50326zM26.66407,21.49424h0.01c5.15235,-0.00318 9.3273,-4.81565 9.32592,-10.75c-0.00138,-5.93435 -4.17857,-10.74424 -9.33092,-10.74424c-5.15235,0 -9.32954,4.80989 -9.33092,10.74424c-0.00138,5.93435 4.17357,10.74682 9.32592,10.75z"/></defs></g></svg>