<svg version="1.2" xmlns="http://www.w3.org/2000/svg" xmlns:xlink="http://www.w3.org/1999/xlink" overflow="visible" preserveAspectRatio="none" viewBox="0 0 30.000000285011467 36.000009999999996" width="30.000000285011467" height="36.000009999999996"><g transform="translate(0, 0)"><g transform="translate(1.7763568394002505e-15, -1.7763568394002505e-15) rotate(0)"><path style="stroke-width: 0; stroke-linecap: butt; stroke-linejoin: miter; fill: rgb(70, 85, 93);" d="M24.45124,25.71153c0,-1.53523 0.2723,-2.98768 0.70089,-4.35411c-0.94978,0.32247 -1.93392,0.4894 -2.92373,0.49594c-1.70881,0 -3.30647,-0.48227 -4.75827,-1.28606h-0.57655c-4.41903,0.00133 -8.00107,4.14623 -8.00222,9.25962v2.31491c0,2.13081 1.4928,3.85818 3.33426,3.85818h16.74076c-2.72437,-2.34625 -4.51514,-6.06618 -4.51514,-10.28847zM6.66852,15.42306c2.45528,0 4.44568,-2.30315 4.44568,-5.14424c0,-2.84108 -1.9904,-5.14424 -4.44568,-5.14424c-2.45528,0 -4.44568,2.30315 -4.44568,5.14424c0,2.84108 1.9904,5.14424 4.44568,5.14424zM12.02417,19.49022c-0.83192,-0.95883 -1.95863,-1.49652 -3.13281,-1.49504h-4.44568c-2.45433,0.00266 -4.44338,2.30425 -4.44568,5.14424v2.57212c0,1.42054 0.9952,2.57212 2.22284,2.57212h4.57766c0.42926,-3.72754 2.36988,-6.99434 5.22367,-8.79343zM22.22006,17.99518h0.00834c4.29363,-0.00266 7.77275,-4.03171 7.7716,-9c-0.00115,-4.96829 -3.48214,-8.99518 -7.77577,-8.99518c-4.29363,0 -7.77462,4.02689 -7.77577,8.99518c-0.00115,4.96829 3.47798,8.99734 7.7716,9z" vector-effect="non-scaling-stroke"/></g><defs><path id="path-1602315130264143" d="M24.45124,25.71153c0,-1.53523 0.2723,-2.98768 0.70089,-4.35411c-0.94978,0.32247 -1.93392,0.4894 -2.92373,0.49594c-1.70881,0 -3.30647,-0.48227 -4.75827,-1.28606h-0.57655c-4.41903,0.00133 -8.00107,4.14623 -8.00222,9.25962v2.31491c0,2.13081 1.4928,3.85818 3.33426,3.85818h16.74076c-2.72437,-2.34625 -4.51514,-6.06618 -4.51514,-10.28847zM6.66852,15.42306c2.45528,0 4.44568,-2.30315 4.44568,-5.14424c0,-2.84108 -1.9904,-5.14424 -4.44568,-5.14424c-2.45528,0 -4.44568,2.30315 -4.44568,5.14424c0,2.84108 1.9904,5.14424 4.44568,5.14424zM12.02417,19.49022c-0.83192,-0.95883 -1.95863,-1.49652 -3.13281,-1.49504h-4.44568c-2.45433,0.00266 -4.44338,2.30425 -4.44568,5.14424v2.57212c0,1.42054 0.9952,2.57212 2.22284,2.57212h4.57766c0.42926,-3.72754 2.36988,-6.99434 5.22367,-8.79343zM22.22006,17.99518h0.00834c4.29363,-0.00266 7.77275,-4.03171 7.7716,-9c-0.00115,-4.96829 -3.48214,-8.99518 -7.77577,-8.99518c-4.29363,0 -7.77462,4.02689 -7.77577,8.99518c-0.00115,4.96829 3.47798,8.99734 7.7716,9z" vector-effect="non-scaling-stroke"/></defs></g></svg>